<?xml version="1.0" encoding="utf-8"?>
<!-- Generator: Adobe Illustrator 17.1.0, SVG Export Plug-In . SVG Version: 6.00 Build 0)  -->
<!DOCTYPE svg PUBLIC "-//W3C//DTD SVG 1.1//EN" "http://www.w3.org/Graphics/SVG/1.1/DTD/svg11.dtd">
<svg version="1.1" id="Layer_1" xmlns="http://www.w3.org/2000/svg" xmlns:xlink="http://www.w3.org/1999/xlink" x="0px" y="0px"
	 viewBox="-2356.4 779.5 1726.4 1115.7" enable-background="new -2356.4 779.5 1726.4 1115.7" xml:space="preserve">
<g enable-background="new    ">
	<path fill="#FFFFFF" d="M-1953,920.3c2.7-7.8,4.8-13.7,5.9-17.5c0.8-2.7,0.4-4.1,1.9-4.1c0.5,0,1.4,0.3,4.1,0.3
		c2.6,0,3.7-0.3,4.3-0.3c0.3,0,0.6,0.1,0.6,0.5c0,0.3-0.7,0.9-1.1,1.4c-0.2,0.3-1.9,0.2-1.9,2.7c0,2.3,1.8,14.9,2.2,19.1
		c0.4,4.9,2,5.5,3.4,5.6c0.6,0.1,0.9,0.3,0.9,0.5c0,0.3-0.5,0.4-0.7,0.9c-0.1,0.3-0.6,0.4-1,0.4c-1.4,0-3.1-0.3-5.3-0.3
		c-1.9,0-5.1,0.3-6.5,0.3c-0.5,0-0.6-0.1-0.6-0.5c0-0.3,0.4-0.6,0.8-1.2c0.1-0.2,2.6-0.4,2.6-3.4c0-4.7-1.1-11.5-1.6-18.4h-0.1
		l-5.3,15.9c-1,2.9-0.7,4.7-1.6,5.2c-2.9,1.6-2.9,2.8-3.7,2.8c-1.2,0-0.7-2.2-8.5-24h-0.1c-0.6,4.7-1.6,15.3-1.6,18.3
		c0,2.3,1.5,3.4,3,3.4c1.2,0,1.5,0.1,1.5,0.5c0,0.3-1,1.4-1.3,1.4c-2.6,0-3.6-0.3-4.8-0.3c-1.1,0-2.8,0.3-4.6,0.3
		c-0.4,0-0.6-0.1-0.6-0.4c0-0.2,0.6-1.4,0.9-1.5c1.8-0.6,2.2-2.2,2.9-8.4c1.1-10.1,1.7-15.2,1.7-16.6c0-1.7-0.7-2.1-2.7-2.4
		c-0.3,0-0.6-0.1-0.6-0.3c0-0.3,1-1.6,1.6-1.6c0.4,0,2.1,0.3,4.3,0.3c1.6,0,3-0.3,3.8-0.3c0.9,0,0.6,0.6,1.5,3.2
		C-1957.5,907.3-1956.4,910.8-1953,920.3L-1953,920.3z"/>
</g>
<g>
	<g enable-background="new    ">
		<path fill="#FFFFFF" d="M-1950,970.2c0,2.8,1.2,3.4,3.1,3.5c0.4,0,0.7,0.1,0.7,0.3c0,0.5-1.2,1.6-1.4,1.6c-0.7,0-1.9-0.3-5.3-0.3
			c-3.9,0-5.3,0.3-5.8,0.3c-0.6,0-0.8-0.1-0.8-0.4c0-0.4,0.5-1.4,1.1-1.5c1-0.2,2-1.5,2-3.5v-20.3c0-2.8-1.2-3.4-3.1-3.5
			c-0.4,0-0.7-0.1-0.7-0.3c0-0.5,1.2-1.6,1.4-1.6c0.7,0,1.9,0.3,5.3,0.3c3.9,0,5.3-0.3,5.8-0.3c0.6,0,0.8,0.1,0.8,0.4
			c0,0.4-0.5,1.4-1.1,1.5c-1,0.2-2,1.5-2,3.5V970.2z"/>
	</g>
</g>
<g>
	<rect x="-2011.1" y="1098.1" fill="none" width="105.4" height="122.7"/>
	<g enable-background="new    ">
		<path fill="#FFFFFF" d="M-1952.8,1106.5c7.1,0,8.9,1.4,10.8,1.4c1.6,0,4.7-1.4,5.2-1.4c0.6,0,1,0.3,1,1.6c0,1.5-0.5,1.4-0.5,8.7
			c0,4.4,0.5,5.6,0.5,7.8c0,0.5-0.6,0.7-1.2,1.2c-0.6,0.5-0.8,1.1-1.6,1.1c-0.9,0-1-0.8-1.5-3.3c-0.7-3.9-2.9-10-13.8-10
			c-9.1,0-14.3,6.2-14.3,21.9c0,18.5,7.6,25.7,17.1,25.7c10.2,0,15.7-9.3,17.4-9.3c0.8,0,1.2,0.3,1.2,0.9c0,0.8-0.3,1.2-0.7,2.8
			c-0.3,1.8,0.1,2.3-1.7,3.6c-12.4,8.9-16,11.2-22.5,11.2c-13,0-23.7-11.4-23.7-31C-1981.2,1123.4-1968.4,1106.5-1952.8,1106.5z"/>
	</g>
</g>
<g>
	<rect x="-2005.9" y="1193.3" fill="none" width="105.4" height="137.1"/>
	<g enable-background="new    ">
		<path fill="#FFFFFF" d="M-1966.8,1239.6c-1.6,5.2-4.8,11.8-4.8,17.5c0,2.7,3.2,4.2,6,4.2c0.9,0,1.2,0.4,1.2,1.1s-0.8,0.9-1.4,1.6
			c-0.9,0.9-1.1,1.1-1.9,1.1c-2.2,0-7.2-0.5-9-0.5c-3.2,0-6.7,0.5-10,0.5c-0.7,0-1.2-0.3-1.2-0.9c0-0.5,1.4-2.6,2.3-2.9
			c4.3-1.7,6.1-7.7,14.9-28.6c4.8-11.5,8.9-22.4,8.9-24.3c0-1.4-0.5-1.7-0.5-2.4c0-0.5,0.9-1.9,1.2-2c0.7-0.2,2.8-0.2,4.7-0.8
			c5.5-1.8,6.1-4,7-4c1.3,0,1.9,1.6,1.9,5.2c0,2.2,17.8,46.9,22.8,53.7c1.8,2.5,3.3,2.8,5.5,3.2c0.5,0.1,0.7,0.4,0.7,0.9
			c0,0.6-1.7,2.9-2.8,2.9c-2.2,0-6.6-0.5-14.7-0.5c-7,0-8.7,0.5-10.5,0.5c-0.6,0-0.9-0.3-0.9-0.9c0-0.4,1.6-2.7,2.2-2.9
			c2.9-1.2,3.8-3.4,3.8-5.2c0-3.9-3.6-11.4-5.2-16.6H-1966.8z M-1964.2,1233.4h15.2l-7.6-19L-1964.2,1233.4z"/>
	</g>
</g>
<g>
	<g>
		<g enable-background="new    ">
			<path fill="#FFFFFF" d="M-1805.5,1081.4V1006h30.7c24.6,0,37,13.5,37,37.6v0.2c0,24.1-12.4,37.6-37,37.6H-1805.5z
				 M-1759.4,1043.6c0-16.9-4.6-23.5-18.3-23.5h-7.1v47.2h7.1c13.7,0,18.3-6.6,18.3-23.5V1043.6z"/>
			<path fill="#FFFFFF" d="M-1728.7,1006h54.6v14.7h-33.9v14.9h29.1v14.5h-29.1v16.7h33.9v14.7h-54.6V1006z"/>
			<path fill="#FFFFFF" d="M-1669.1,1065.1l14-10.2c6,9.4,12.5,13.3,20,13.3c6.4,0,10.3-2.9,10.3-7.2c0-4-2.7-6.4-10.1-8.1l-8.6-1.9
				c-14.2-3.2-21.3-10.5-21.3-22.7c0-12.9,10.3-23.8,30.8-23.8c13.3,0,24.8,5.6,31,14.5l-13.8,10.1c-5.9-7.5-11.2-10.2-17.2-10.2
				c-5.8,0-9.5,2.4-9.5,6.5c0,3.3,2.3,5.6,8.2,6.9l8.6,1.8c17.7,3.8,24.2,12.4,24.2,24.2c0,14-12.3,24.8-32.7,24.8
				C-1651,1083-1663.4,1076.4-1669.1,1065.1z"/>
			<path fill="#FFFFFF" d="M-1593.4,1006h20.7v75.4h-20.7V1006z"/>
			<path fill="#FFFFFF" d="M-1511.4,1070.9c-3.6,8.1-10.6,12.1-20.5,12.1c-17.9,0-31.1-13.4-31.1-39.2v-0.2
				c0-23.5,12.9-39.2,35.9-39.2c19.1,0,28.8,8.4,31.4,23.3l-18.3,2.2c-1.7-7.9-5.9-11.6-12.7-11.6c-9.4,0-14.7,6.8-14.7,25.4v0.2
				c0,18.5,5,25.4,14.9,25.4c7.2,0,12.4-5.2,12.4-14.7v-0.4h-14V1040h33.3v41.4h-15.4L-1511.4,1070.9z"/>
			<path fill="#FFFFFF" d="M-1484.7,1081.4V1006h19.6l26.8,42.8V1006h18.5v75.4h-18.6l-27.8-44.3v44.3H-1484.7z"/>
		</g>
	</g>
</g>
<g>
	<g enable-background="new    ">
		<path fill="#FFFFFF" d="M-2289.3,1056.7c-1.8,4-5.3,6-10.2,6c-8.9,0-15.6-6.7-15.6-19.6v-0.1c0-11.7,6.5-19.6,17.9-19.6
			c9.5,0,14.4,4.2,15.7,11.6l-9.2,1.1c-0.9-3.9-3-5.8-6.4-5.8c-4.7,0-7.3,3.4-7.3,12.7v0.1c0,9.3,2.5,12.7,7.4,12.7
			c3.6,0,6.2-2.6,6.2-7.3v-0.2h-7v-7.1h16.7v20.7h-7.7L-2289.3,1056.7z"/>
		<path fill="#FFFFFF" d="M-2260.9,1048.1h-4.6v13.9h-10.3v-37.7h16.9c10.2,0,14.7,4.9,14.7,12c0,4.8-2.4,7.9-7.2,9.8l8.8,15.9
			h-11.2L-2260.9,1048.1z M-2265.6,1041.2h5c3.9,0,5.5-1.7,5.5-5.1c0-3.3-1.6-5-5.5-5h-5V1041.2z"/>
		<path fill="#FFFFFF" d="M-2217.3,1054.1h-12.5l-2.3,7.9h-9.3l12.2-37.7h12.8l12.2,37.7h-10.8L-2217.3,1054.1z M-2223.6,1032.6
			l-4.1,14.3h8.4L-2223.6,1032.6z"/>
		<path fill="#FFFFFF" d="M-2190.6,1049.4v12.6h-10.3v-37.7h17.2c9.6,0,15,4.7,15,12.6c0,7.9-5.4,12.6-15,12.6H-2190.6z
			 M-2190.6,1042.5h5.1c4.1,0,6-2,6-5.7c0-3.7-1.9-5.7-6-5.7h-5.1V1042.5z"/>
		<path fill="#FFFFFF" d="M-2164.8,1024.2h10.3v14.6h11.5v-14.6h10.4v37.7h-10.4v-14.9h-11.5v14.9h-10.3V1024.2z"/>
		<path fill="#FFFFFF" d="M-2126.6,1024.2h10.3v37.7h-10.3V1024.2z"/>
		<path fill="#FFFFFF" d="M-2093.7,1023.4c9.5,0,14.6,5.1,15.9,13.5l-9.4,1.1c-0.8-5.4-2.7-7.7-6.3-7.7c-4.4,0-7.1,3.4-7.1,12.7v0.1
			c0,9.4,2.7,12.7,7.1,12.7c3.4,0,5.7-1.9,6.6-8l9.5,1.1c-1.2,9.4-7.3,13.9-16.2,13.9c-10.8,0-17.7-7.4-17.7-19.6v-0.1
			C-2111.4,1031.1-2104.7,1023.4-2093.7,1023.4z"/>
	</g>
</g>
<line fill="none" stroke="#00FF8B" stroke-width="2" stroke-miterlimit="10" x1="-631" y1="1894.2" x2="-2355.4" y2="780.5"/>
<line fill="none" stroke="#00FF8B" stroke-width="2" stroke-miterlimit="10" x1="-1548" y1="780.5" x2="-2355.4" y2="1302"/>
<rect x="-2355.4" y="780.5" fill="none" stroke="#00FF8B" stroke-width="2" stroke-miterlimit="10" width="1724.4" height="1113.7"/>
</svg>
