<?xml version="1.0" encoding="utf-8"?>
<!-- Generator: Adobe Illustrator 17.1.0, SVG Export Plug-In . SVG Version: 6.00 Build 0)  -->
<!DOCTYPE svg PUBLIC "-//W3C//DTD SVG 1.1//EN" "http://www.w3.org/Graphics/SVG/1.1/DTD/svg11.dtd">
<svg version="1.1" id="Layer_1" xmlns="http://www.w3.org/2000/svg" xmlns:xlink="http://www.w3.org/1999/xlink" x="0px" y="0px"
	 viewBox="-2231.2 768.7 1726.4 1115.7" enable-background="new -2231.2 768.7 1726.4 1115.7" xml:space="preserve">
<g>
	<path fill="none" stroke="#00FF8B" stroke-width="2" stroke-miterlimit="10" d="M-520,1182.1"/>
	<g enable-background="new    ">
		<path fill="#FFFFFF" d="M-1369.7,1152.1c5.3-15.7,9.7-27.4,11.9-35c1.6-5.3,0.9-8.3,3.8-8.3c1,0,2.8,0.5,8.1,0.5s7.4-0.5,8.6-0.5
			c0.7,0,1.2,0.3,1.2,1c0,0.5-1.4,1.9-2.2,2.8c-0.4,0.6-3.7,0.4-3.7,5.3c0,4.6,3.6,29.8,4.3,38.1c0.8,9.8,4.1,11,6.8,11.3
			c1.3,0.2,1.8,0.6,1.8,1c0,0.5-1,0.8-1.4,1.9c-0.3,0.7-1.3,0.9-2.1,0.9c-2.8,0-6.1-0.5-10.6-0.5c-3.7,0-10.3,0.5-12.9,0.5
			c-0.9,0-1.3-0.2-1.3-1c0-0.7,0.9-1.3,1.6-2.4c0.2-0.4,5.2-0.8,5.2-6.8c0-9.5-2.2-22.9-3.1-36.8h-0.2l-10.7,31.9
			c-2,5.9-1.4,9.3-3.3,10.3c-5.8,3.2-5.8,5.7-7.3,5.7c-2.3,0-1.5-4.5-17.1-47.9h-0.2c-1.1,9.5-3.2,30.5-3.2,36.6c0,4.7,3,6.7,6,6.7
			c2.4,0,2.9,0.3,2.9,1c0,0.6-2,2.8-2.6,2.8c-5.3,0-7.2-0.5-9.6-0.5c-2.2,0-5.5,0.5-9.1,0.5c-0.9,0-1.1-0.3-1.1-0.8
			c0-0.3,1.3-2.8,1.9-3c3.5-1.3,4.5-4.4,5.9-16.9c2.2-20.2,3.4-30.4,3.4-33.2c0-3.4-1.5-4.2-5.3-4.7c-0.7-0.1-1.2-0.3-1.2-0.7
			c0-0.6,2-3.1,3.1-3.1c0.8,0,4.2,0.5,8.6,0.5c3.2,0,6-0.5,7.6-0.5c1.9,0,1.3,1.3,2.9,6.4c3.4,10.9,5.7,17.8,12.2,36.9H-1369.7z"/>
	</g>
	<g>
		<g enable-background="new    ">
			<path fill="#FFFFFF" d="M-1363.5,1250.6c0,5.5,2.5,6.7,6.3,7.1c0.9,0.1,1.4,0.3,1.4,0.7c0,0.9-2.3,3.1-2.8,3.1
				c-1.4,0-3.8-0.5-10.7-0.5c-7.8,0-10.7,0.5-11.6,0.5c-1.3,0-1.6-0.3-1.6-0.8c0-0.8,0.9-2.8,2.2-3c2.1-0.4,4.1-2.9,4.1-7.1v-40.7
				c0-5.5-2.5-6.7-6.3-7.1c-0.9-0.1-1.4-0.3-1.4-0.7c0-0.9,2.3-3.1,2.8-3.1c1.4,0,3.8,0.5,10.7,0.5c7.8,0,10.7-0.5,11.6-0.5
				c1.3,0,1.6,0.3,1.6,0.8c0,0.8-0.9,2.8-2.2,3c-2.1,0.4-4.1,2.9-4.1,7.1V1250.6z"/>
		</g>
	</g>
	<g>
		<rect x="-1427.8" y="1383.6" fill="none" width="105.4" height="122.7"/>
		<g enable-background="new    ">
			<path fill="#FFFFFF" d="M-1369.6,1392.1c7.1,0,8.9,1.4,10.8,1.4c1.6,0,4.7-1.4,5.2-1.4c0.6,0,1,0.3,1,1.6c0,1.5-0.5,1.4-0.5,8.7
				c0,4.4,0.5,5.6,0.5,7.8c0,0.5-0.6,0.7-1.2,1.2c-0.6,0.5-0.8,1.1-1.6,1.1s-1-0.8-1.5-3.3c-0.7-3.9-2.9-10-13.8-10
				c-9.1,0-14.3,6.2-14.3,21.9c0,18.5,7.6,25.7,17.1,25.7c10.2,0,15.7-9.3,17.4-9.3c0.8,0,1.2,0.3,1.2,0.9c0,0.8-0.3,1.2-0.7,2.8
				c-0.3,1.8,0.1,2.3-1.7,3.6c-12.4,8.9-16,11.2-22.5,11.2c-13,0-23.7-11.4-23.7-31C-1397.9,1409-1385.2,1392.1-1369.6,1392.1z"/>
		</g>
	</g>
	<g>
		<rect x="-1422.6" y="1478.8" fill="none" width="105.4" height="137.1"/>
		<g enable-background="new    ">
			<path fill="#FFFFFF" d="M-1383.6,1525.1c-1.6,5.2-4.8,11.8-4.8,17.5c0,2.7,3.2,4.2,6,4.2c0.9,0,1.2,0.4,1.2,1.1
				c0,0.7-0.8,0.9-1.4,1.6c-0.9,0.9-1.1,1.1-1.9,1.1c-2.2,0-7.2-0.5-9-0.5c-3.2,0-6.7,0.5-10,0.5c-0.7,0-1.2-0.3-1.2-0.9
				s1.4-2.6,2.3-2.9c4.3-1.7,6.1-7.7,14.9-28.6c4.8-11.5,8.9-22.4,8.9-24.3c0-1.4-0.5-1.7-0.5-2.4c0-0.5,0.9-1.9,1.2-2
				c0.7-0.2,2.8-0.2,4.7-0.8c5.5-1.8,6.1-4,7-4c1.3,0,1.9,1.6,1.9,5.2c0,2.2,17.8,46.9,22.8,53.7c1.8,2.5,3.3,2.8,5.5,3.2
				c0.5,0.1,0.7,0.4,0.7,0.9c0,0.6-1.7,2.9-2.8,2.9c-2.2,0-6.6-0.5-14.7-0.5c-7,0-8.7,0.5-10.5,0.5c-0.6,0-0.9-0.3-0.9-0.9
				c0-0.4,1.6-2.7,2.2-2.9c2.9-1.2,3.8-3.4,3.8-5.2c0-3.9-3.6-11.4-5.2-16.6H-1383.6z M-1381,1518.9h15.2l-7.6-19L-1381,1518.9z"/>
		</g>
	</g>
	<g>
		<g>
			<g enable-background="new    ">
				<path fill="#FFFFFF" d="M-1222.3,1366.9v-75.4h30.7c24.6,0,37,13.5,37,37.6v0.2c0,24.1-12.4,37.6-37,37.6H-1222.3z
					 M-1176.1,1329.1c0-16.9-4.6-23.5-18.3-23.5h-7.1v47.2h7.1c13.7,0,18.3-6.6,18.3-23.5V1329.1z"/>
				<path fill="#FFFFFF" d="M-1145.4,1291.5h54.6v14.7h-33.9v14.9h29.1v14.5h-29.1v16.7h33.9v14.7h-54.6V1291.5z"/>
				<path fill="#FFFFFF" d="M-1085.8,1350.7l14-10.2c6,9.4,12.5,13.3,20,13.3c6.4,0,10.3-2.9,10.3-7.2c0-4-2.7-6.4-10.1-8.1
					l-8.6-1.9c-14.2-3.2-21.3-10.5-21.3-22.7c0-12.9,10.3-23.8,30.8-23.8c13.3,0,24.8,5.6,31,14.5l-13.8,10.1
					c-5.9-7.5-11.2-10.2-17.2-10.2c-5.8,0-9.5,2.4-9.5,6.5c0,3.3,2.3,5.6,8.2,6.9l8.6,1.8c17.7,3.8,24.2,12.4,24.2,24.2
					c0,14-12.3,24.8-32.7,24.8C-1067.7,1368.6-1080.1,1362-1085.8,1350.7z"/>
				<path fill="#FFFFFF" d="M-1010.2,1291.5h20.7v75.4h-20.7V1291.5z"/>
				<path fill="#FFFFFF" d="M-928.2,1356.5c-3.6,8.1-10.6,12.1-20.5,12.1c-17.9,0-31.1-13.4-31.1-39.2v-0.2
					c0-23.5,12.9-39.2,35.9-39.2c19.1,0,28.8,8.4,31.4,23.3l-18.3,2.2c-1.7-7.9-5.9-11.6-12.7-11.6c-9.4,0-14.7,6.8-14.7,25.4v0.2
					c0,18.5,5,25.4,14.9,25.4c7.2,0,12.4-5.2,12.4-14.7v-0.4h-14v-14.1h33.3v41.4h-15.4L-928.2,1356.5z"/>
				<path fill="#FFFFFF" d="M-901.4,1366.9v-75.4h19.6l26.8,42.8v-42.8h18.5v75.4h-18.6l-27.8-44.3v44.3H-901.4z"/>
			</g>
		</g>
	</g>
	<g>
		<g enable-background="new    ">
			<path fill="#FFFFFF" d="M-1919,1354.3c-3.6,8.1-10.6,12.1-20.5,12.1c-17.9,0-31.1-13.4-31.1-39.2v-0.2
				c0-23.5,12.9-39.2,35.9-39.2c19.1,0,28.8,8.4,31.4,23.3l-18.3,2.2c-1.7-7.9-5.9-11.6-12.7-11.6c-9.4,0-14.7,6.8-14.7,25.4v0.2
				c0,18.5,5,25.4,14.9,25.4c7.2,0,12.4-5.2,12.4-14.7v-0.4h-14v-14.1h33.3v41.4h-15.4L-1919,1354.3z"/>
			<path fill="#FFFFFF" d="M-1862.4,1337.1h-9.3v27.7h-20.7v-75.4h33.8c20.4,0,29.4,9.8,29.4,24c0,9.6-4.8,15.8-14.4,19.6l17.6,31.8
				h-22.3L-1862.4,1337.1z M-1871.6,1323.3h9.9c7.8,0,11-3.3,11-10.1c0-6.7-3.2-10-11-10h-9.9V1323.3z"/>
			<path fill="#FFFFFF" d="M-1775.1,1349h-25l-4.5,15.7h-18.6l24.4-75.4h25.5l24.4,75.4h-21.6L-1775.1,1349z M-1787.6,1306.1
				l-8.3,28.7h16.7L-1787.6,1306.1z"/>
			<path fill="#FFFFFF" d="M-1721.7,1339.7v25.1h-20.7v-75.4h34.5c19.2,0,30,9.4,30,25.1c0,15.8-10.8,25.2-30,25.2H-1721.7z
				 M-1721.7,1325.9h10.1c8.2,0,12.1-4,12.1-11.4c0-7.3-3.9-11.3-12.1-11.3h-10.1V1325.9z"/>
			<path fill="#FFFFFF" d="M-1670,1289.3h20.7v29.1h23v-29.1h20.8v75.4h-20.8V1335h-23v29.7h-20.7V1289.3z"/>
			<path fill="#FFFFFF" d="M-1593.6,1289.3h20.7v75.4h-20.7V1289.3z"/>
			<path fill="#FFFFFF" d="M-1527.8,1287.7c19.1,0,29.2,10.1,31.8,26.9l-18.9,2.3c-1.5-10.9-5.4-15.4-12.6-15.4
				c-8.7,0-14.1,6.9-14.1,25.4v0.2c0,18.8,5.5,25.4,14.1,25.4c6.9,0,11.4-3.9,13.1-16.1l19,2.2c-2.5,18.8-14.5,27.7-32.4,27.7
				c-21.7,0-35.3-14.9-35.3-39.2v-0.2C-1563.2,1303.1-1549.9,1287.7-1527.8,1287.7z"/>
		</g>
	</g>
	<g>
		<line fill="none" stroke="#00FF8B" stroke-width="2" stroke-miterlimit="10" x1="-505.8" y1="1883.4" x2="-2230.2" y2="769.7"/>
		<line fill="none" stroke="#00FF8B" stroke-width="2" stroke-miterlimit="10" x1="-505.8" y1="769.7" x2="-2230.2" y2="1883.4"/>
		
			<rect x="-2230.2" y="769.7" fill="none" stroke="#00FF8B" stroke-width="2" stroke-miterlimit="10" width="1724.4" height="1113.7"/>
	</g>
</g>
</svg>
