<?xml version="1.0" encoding="utf-8"?>
<!-- Generator: Adobe Illustrator 17.1.0, SVG Export Plug-In . SVG Version: 6.00 Build 0)  -->
<!DOCTYPE svg PUBLIC "-//W3C//DTD SVG 1.1//EN" "http://www.w3.org/Graphics/SVG/1.1/DTD/svg11.dtd">
<svg version="1.1" id="Layer_1" xmlns="http://www.w3.org/2000/svg" xmlns:xlink="http://www.w3.org/1999/xlink" x="0px" y="0px"
	 viewBox="16.1 4.1 71.8 19.7" enable-background="new 16.1 4.1 71.8 19.7" xml:space="preserve">
<g>
	<path d="M21.1,11.7c0,1.6,0,3.2,0,4.8c0.2,0,0.3,0,0.4,0c1,0,1,0,1,1c0,0.5,0,0.9,0,1.4c0,0.2-0.2,0.4-0.3,0.4c-2,0-4,0-6,0
		c0-1,0-1.9,0-2.8c0.4,0,0.8,0,1.2-0.1c0-0.5,0-0.9,0-1.4c0-1.3,0-2.6,0-3.8c0-0.9,0.1-0.9-0.8-0.9c-0.1,0-0.2,0-0.4,0
		c0-0.9,0-1.8,0-2.8c0.2,0,0.4,0,0.6,0c2.6,0,5.1,0,7.7,0c0.4,0,0.6,0.1,0.7,0.5c0.2,0.8,0.6,1.7,0.9,2.7c0.4-0.9,0.7-1.7,0.9-2.5
		c0.2-0.6,0.5-0.8,1.1-0.8c2,0,4.1,0,6.1,0c0.2,0,0.5,0,0.7,0c0,1,0,1.9,0,2.8c-0.4,0-0.8,0-1.2,0.1c0,2,0,4,0,6
		c0.4,0,0.8,0.1,1.2,0.1c0,0.9,0,1.8,0,2.8c-0.2,0-0.4,0-0.6,0c-2.1,0-4.2,0-6.4,0c-0.5,0-0.7-0.2-0.6-0.7c0-0.5,0-1.1,0-1.6
		c0-0.5,0.2-0.7,0.6-0.6c0.6,0.1,0.7-0.2,0.7-0.7c0-1.2,0-2.5,0-3.7c0-0.2,0-0.3,0-0.5c-0.1,0-0.1,0-0.2,0c-0.1,0.3-0.1,0.5-0.2,0.8
		c-0.5,1.7-1.1,3.3-1.6,5c-0.2,0.5-0.3,1-0.4,1.5c0,0.1-0.1,0.3-0.1,0.3c-0.6,0.1-1.2,0.2-1.9,0.2c-0.2,0-0.4-0.2-0.5-0.4
		c-0.7-2.1-1.4-4.1-2.1-6.2c-0.1-0.4-0.3-0.8-0.4-1.1C21.1,11.7,21.1,11.7,21.1,11.7z"/>
	<path d="M65.5,9.1c0-0.5,0-0.9,0-1.4c1,0,2,0,3.1,0c0,1.8,0,3.5,0,5.4c-1.1,0-2.2,0-3.2,0c-0.1-0.5-0.2-1.1-0.3-1.6
		c-0.2-0.8-0.8-1.2-1.5-1.2c-0.8,0-1.4,0.3-1.7,1.1c-0.5,1.5-0.5,3.1,0.1,4.5c0.3,0.8,1,1.2,1.8,1.1c0.9-0.1,1.4-0.5,1.6-1.5
		c0.1-0.3,0.1-0.7,0.1-1.1c1,0,2.1,0,3.1,0c0.4,1.7-0.6,3.7-2.4,4.5c-1.5,0.7-3.1,0.8-4.7,0.6c-0.8-0.1-1.6-0.3-2.4-0.7
		c-1.9-0.9-2.8-2.5-2.9-4.6c-0.1-1.5,0.1-3,0.9-4.4c1.3-2.1,4.1-3.2,6.5-2.3c0.6,0.2,1,0.7,1.5,1.1c0.2,0.1,0.3,0.3,0.4,0.4
		C65.4,9.1,65.5,9.1,65.5,9.1z"/>
	<path d="M87.9,16.6c0,0.9,0,1.8,0,2.8c-2.6,0-5.1,0-7.7,0c0-0.9,0-1.8,0-2.8c0.3,0,0.6,0,0.9,0c0.1-0.6-0.2-1.4-0.5-1.5
		c-1.7-0.2-1.9-0.1-2.2,1.4c0.1,0,0.2,0.1,0.3,0.1c0.9,0.1,0.9,0,0.9,1c0,0.6,0,1.2,0,1.8c-1.8,0-3.5,0-5.3,0c0-0.9,0-1.8,0-2.8
		c1.2,0.4,1.2-0.6,1.4-1.2c0.8-2.4,1.6-4.8,2.4-7.2c0.1-0.4,0.3-0.5,0.7-0.5c1.4,0,2.8,0,4.2,0c0.4,0,0.6,0.2,0.7,0.6
		c0.8,2.5,1.7,5,2.4,7.6c0.2,0.7,0.5,0.9,1.2,0.8C87.5,16.5,87.7,16.6,87.9,16.6z M80.5,13.8c-0.2-0.8-0.5-1.5-0.7-2.3
		c0,0-0.1,0-0.2,0c-0.2,0.7-0.4,1.5-0.6,2.3C79.6,13.8,80,13.8,80.5,13.8z"/>
	<path d="M41.9,19.4c0-0.9,0-1.8,0-2.8c0.4,0,0.8,0,1.2-0.1c0-2,0-4,0-6.1c-0.4,0-0.8,0-1.2-0.1c0-0.9,0-1.8,0-2.8
		c2.6,0,5.1,0,7.7,0c0,0.9,0,1.8,0,2.7c-0.1,0-0.1,0.1-0.2,0.1c-1.1,0.1-1.1,0.1-1.1,1.2c0,1.6,0,3.2,0,4.9c0.4,0,0.8,0,1.3,0.1
		c0,0.9,0,1.8,0,2.8C47.1,19.4,44.5,19.4,41.9,19.4z"/>
	<g>
		<line fill="none" x1="53.4" y1="4.3" x2="53.4" y2="23.7"/>
		<rect x="53.4" y="4.3" width="0.7" height="19.3"/>
	</g>
	<g>
		<line fill="none" x1="37.5" y1="4.3" x2="37.5" y2="23.7"/>
		<rect x="37.5" y="4.3" width="0.7" height="19.3"/>
	</g>
	<line fill="none" stroke="#231F20" stroke-miterlimit="10" x1="75.4" y1="4.3" x2="69" y2="23.7"/>
</g>
</svg>
